<svg width="1200" height="2859" viewBox="0 0 1200 2859" fill="none" xmlns="http://www.w3.org/2000/svg">
<g clip-path="url(#clip0_7_2)">
<rect width="1200" height="2859" fill="#002A68" fill-opacity="0.9"/>
<g filter="url(#filter0_d_7_2)">
<path d="M1178.39 1359.87C1101.25 1527.55 839.482 1708.8 657.885 1625.25C476.289 1541.7 443.631 1224.99 520.775 1057.31C597.92 889.635 648.705 1166.95 830.301 1250.5C1011.9 1334.05 1401.49 786.096 1178.39 1359.87Z" fill="#FF7A00"/>
<path d="M1186.17 1342.96C1109.03 1510.64 847.26 1691.9 665.663 1608.35C484.067 1524.8 451.409 1208.08 528.554 1040.41C605.698 872.729 656.483 1150.05 838.079 1233.6C1019.68 1317.15 1409.27 769.19 1186.17 1342.96Z" fill="#FF7A00" fill-opacity="0.59"/>
</g>
<g filter="url(#filter1_d_7_2)">
<path d="M1318 472.978C1318 683.053 1076.91 995 779.5 995C482.095 995 241 683.053 241 472.978C241 262.902 482.095 525.489 779.5 525.489C1076.91 525.489 1262.74 -226.435 1318 472.978Z" fill="#FF7A00"/>
<path d="M1318 451.797C1318 661.872 1076.91 973.819 779.5 973.819C482.095 973.819 241 661.872 241 451.797C241 241.722 482.095 504.308 779.5 504.308C1076.91 504.308 1262.74 -247.616 1318 451.797Z" fill="#FF7A00" fill-opacity="0.59"/>
</g>
<path d="M1269.79 816.411C1248.43 963.607 1107.17 1064.94 954.28 1042.75C801.394 1020.55 512.136 759.558 533.503 612.362C554.871 465.166 836.162 763.514 1031.66 509.703C1184.54 531.897 1291.16 669.215 1269.79 816.411Z" fill="#02644C"/>
<g filter="url(#filter2_d_7_2)">
<path d="M1234.4 196.196C1234.4 294.611 1341.73 849.338 993.326 716.6C872.452 625.684 1168.71 531.54 909.019 314.751C775.28 203.105 973.193 18 1066.13 18C1159.06 18 1234.4 97.781 1234.4 196.196Z" fill="#FFC700"/>
</g>
<g filter="url(#filter3_d_7_2)">
<path d="M427.268 15.849C468.631 114.115 401.974 292.781 278.162 219.959C87.2984 107.702 9.60228 804.236 -31.7609 705.97C-73.1241 607.704 -211.056 154.827 128.373 -135.893C188.139 -177.744 385.905 -82.4169 427.268 15.849Z" fill="#00B4EF"/>
<path d="M558 154.228C558 252.798 413.252 355.056 318.197 231.469C171.665 40.9539 -14.8759 312.951 -14.8759 214.381C-14.8759 115.811 -152.998 -84.3958 318.197 -125.485C397.154 -125.485 558 55.6575 558 154.228Z" fill="#0788B2" fill-opacity="0.98"/>
</g>
<g filter="url(#filter4_d_7_2)">
<path d="M1228 64.2538C1168.29 101.974 1187.53 205.444 1085.69 205.444C993.835 205.444 833.919 102.497 833.919 22.035C833.919 -58.427 946.787 -81.4355 1046.84 -81.4355C1146.89 -81.4355 1228 -16.2082 1228 64.2538Z" fill="#0788B2"/>
<g filter="url(#filter5_d_7_2)">
<path d="M1182.08 0.925561C1146.77 52.8149 1141.61 161.88 1039.77 161.88C947.916 161.88 788 58.9325 788 -21.5295C788 -101.991 900.868 -125 1000.92 -125C1100.97 -125 1251.79 -101.507 1182.08 0.925561Z" fill="#00B4EF"/>
</g>
</g>
<g filter="url(#filter6_d_7_2)">
<path d="M-90.9944 1047.91C66.8527 738.849 -330.907 569.494 -211.691 562.099C-92.475 554.704 230.19 632.977 271.77 1025.4C277.972 1125.39 186.356 1212.44 67.1404 1219.84C-52.0755 1227.23 -84.792 1147.89 -90.9944 1047.91Z" fill="#02644C"/>
</g>
<g filter="url(#filter7_d_7_2)">
<g filter="url(#filter8_d_7_2)">
<path d="M360.293 1440.36C324.1 1386.41 219.849 1333.61 261.402 1244.26C298.878 1163.68 464.517 1068.94 542.982 1104.56C621.446 1140.17 597.831 1249.38 557.009 1337.16C516.186 1424.94 431.742 1546.85 360.293 1440.36Z" fill="#00B4EF"/>
</g>
<path d="M290.763 1429.04C278.343 1359.96 169.591 1331.04 211.144 1241.69C248.62 1161.11 414.26 1066.38 492.724 1101.99C571.188 1137.61 547.574 1246.82 506.751 1334.59C465.928 1422.37 369.227 1464.66 290.763 1429.04Z" fill="#0788B2"/>
</g>
<g filter="url(#filter9_d_7_2)">
<path d="M942.64 1673.15C857.25 1590.99 869.214 1380.36 1042.3 1401.03C1309.13 1432.88 1141.05 690.398 1226.44 772.554C1311.83 854.711 1643.25 1256.1 1351.53 1698.54C1296.68 1766.94 1028.03 1755.3 942.64 1673.15Z" fill="#00B4EF"/>
<path d="M736.953 1588.75C700.206 1488.42 832.705 1321.85 990.823 1406.6C1234.57 1537.24 1353.05 1179.86 1389.8 1280.18C1426.55 1380.51 1663.99 1524.65 1123.9 1769.9C1030.83 1803.99 773.7 1689.07 736.953 1588.75Z" fill="#0788B2" fill-opacity="0.98"/>
</g>
<g filter="url(#filter10_d_7_2)">
<path d="M423 1122.54C423 1290.11 244.362 1538.93 24 1538.93C-196.362 1538.93 -375 1290.11 -375 1122.54C-375 954.971 -196.362 1164.42 24 1164.42C244.362 1164.42 382.054 564.65 423 1122.54Z" fill="#FFC700"/>
<path d="M-36.3876 1329.07C56.4561 1259.83 275.829 1266.28 376.372 1401.09C476.915 1535.89 420.554 1748 327.711 1817.25C234.867 1886.49 269.412 1690.66 168.869 1555.85C68.3262 1421.04 -326.814 1584.67 -36.3876 1329.07Z" fill="#FFC700"/>
</g>
</g>
<defs>
<filter id="filter0_d_7_2" x="477.68" y="987.532" width="779.592" height="666.75" filterUnits="userSpaceOnUse" color-interpolation-filters="sRGB">
<feFlood flood-opacity="0" result="BackgroundImageFix"/>
<feColorMatrix in="SourceAlpha" type="matrix" values="0 0 0 0 0 0 0 0 0 0 0 0 0 0 0 0 0 0 127 0" result="hardAlpha"/>
<feOffset dy="4"/>
<feGaussianBlur stdDeviation="2"/>
<feComposite in2="hardAlpha" operator="out"/>
<feColorMatrix type="matrix" values="0 0 0 0 0 0 0 0 0 0 0 0 0 0 0 0 0 0 0.25 0"/>
<feBlend mode="normal" in2="BackgroundImageFix" result="effect1_dropShadow_7_2"/>
<feBlend mode="normal" in="SourceGraphic" in2="effect1_dropShadow_7_2" result="shape"/>
</filter>
<filter id="filter1_d_7_2" x="237" y="154" width="1085" height="849" filterUnits="userSpaceOnUse" color-interpolation-filters="sRGB">
<feFlood flood-opacity="0" result="BackgroundImageFix"/>
<feColorMatrix in="SourceAlpha" type="matrix" values="0 0 0 0 0 0 0 0 0 0 0 0 0 0 0 0 0 0 127 0" result="hardAlpha"/>
<feOffset dy="4"/>
<feGaussianBlur stdDeviation="2"/>
<feComposite in2="hardAlpha" operator="out"/>
<feColorMatrix type="matrix" values="0 0 0 0 0 0 0 0 0 0 0 0 0 0 0 0 0 0 0.25 0"/>
<feBlend mode="normal" in2="BackgroundImageFix" result="effect1_dropShadow_7_2"/>
<feBlend mode="normal" in="SourceGraphic" in2="effect1_dropShadow_7_2" result="shape"/>
</filter>
<filter id="filter2_d_7_2" x="860" y="18" width="394" height="727" filterUnits="userSpaceOnUse" color-interpolation-filters="sRGB">
<feFlood flood-opacity="0" result="BackgroundImageFix"/>
<feColorMatrix in="SourceAlpha" type="matrix" values="0 0 0 0 0 0 0 0 0 0 0 0 0 0 0 0 0 0 127 0" result="hardAlpha"/>
<feOffset dy="4"/>
<feGaussianBlur stdDeviation="2"/>
<feComposite in2="hardAlpha" operator="out"/>
<feColorMatrix type="matrix" values="0 0 0 0 0 0 0 0 0 0 0 0 0 0 0 0 0 0 0.3 0"/>
<feBlend mode="normal" in2="BackgroundImageFix" result="effect1_dropShadow_7_2"/>
<feBlend mode="normal" in="SourceGraphic" in2="effect1_dropShadow_7_2" result="shape"/>
</filter>
<filter id="filter3_d_7_2" x="-98.6145" y="-146.008" width="660.615" height="869.51" filterUnits="userSpaceOnUse" color-interpolation-filters="sRGB">
<feFlood flood-opacity="0" result="BackgroundImageFix"/>
<feColorMatrix in="SourceAlpha" type="matrix" values="0 0 0 0 0 0 0 0 0 0 0 0 0 0 0 0 0 0 127 0" result="hardAlpha"/>
<feOffset dy="4"/>
<feGaussianBlur stdDeviation="2"/>
<feComposite in2="hardAlpha" operator="out"/>
<feColorMatrix type="matrix" values="0 0 0 0 0 0 0 0 0 0 0 0 0 0 0 0 0 0 0.25 0"/>
<feBlend mode="normal" in2="BackgroundImageFix" result="effect1_dropShadow_7_2"/>
<feBlend mode="normal" in="SourceGraphic" in2="effect1_dropShadow_7_2" result="shape"/>
</filter>
<filter id="filter4_d_7_2" x="784" y="-125" width="448" height="338.444" filterUnits="userSpaceOnUse" color-interpolation-filters="sRGB">
<feFlood flood-opacity="0" result="BackgroundImageFix"/>
<feColorMatrix in="SourceAlpha" type="matrix" values="0 0 0 0 0 0 0 0 0 0 0 0 0 0 0 0 0 0 127 0" result="hardAlpha"/>
<feOffset dy="4"/>
<feGaussianBlur stdDeviation="2"/>
<feComposite in2="hardAlpha" operator="out"/>
<feColorMatrix type="matrix" values="0 0 0 0 0 0 0 0 0 0 0 0 0 0 0 0 0 0 0.25 0"/>
<feBlend mode="normal" in2="BackgroundImageFix" result="effect1_dropShadow_7_2"/>
<feBlend mode="normal" in="SourceGraphic" in2="effect1_dropShadow_7_2" result="shape"/>
</filter>
<filter id="filter5_d_7_2" x="784" y="-125" width="419.874" height="294.88" filterUnits="userSpaceOnUse" color-interpolation-filters="sRGB">
<feFlood flood-opacity="0" result="BackgroundImageFix"/>
<feColorMatrix in="SourceAlpha" type="matrix" values="0 0 0 0 0 0 0 0 0 0 0 0 0 0 0 0 0 0 127 0" result="hardAlpha"/>
<feOffset dy="4"/>
<feGaussianBlur stdDeviation="2"/>
<feComposite in2="hardAlpha" operator="out"/>
<feColorMatrix type="matrix" values="0 0 0 0 0 0 0 0 0 0 0 0 0 0 0 0 0 0 0.25 0"/>
<feBlend mode="normal" in2="BackgroundImageFix" result="effect1_dropShadow_7_2"/>
<feBlend mode="normal" in="SourceGraphic" in2="effect1_dropShadow_7_2" result="shape"/>
</filter>
<filter id="filter6_d_7_2" x="-238.348" y="561.637" width="514.415" height="666.679" filterUnits="userSpaceOnUse" color-interpolation-filters="sRGB">
<feFlood flood-opacity="0" result="BackgroundImageFix"/>
<feColorMatrix in="SourceAlpha" type="matrix" values="0 0 0 0 0 0 0 0 0 0 0 0 0 0 0 0 0 0 127 0" result="hardAlpha"/>
<feOffset dy="4"/>
<feGaussianBlur stdDeviation="2"/>
<feComposite in2="hardAlpha" operator="out"/>
<feColorMatrix type="matrix" values="0 0 0 0 0 0 0 0 0 0 0 0 0 0 0 0 0 0 0.35 0"/>
<feBlend mode="normal" in2="BackgroundImageFix" result="effect1_dropShadow_7_2"/>
<feBlend mode="normal" in="SourceGraphic" in2="effect1_dropShadow_7_2" result="shape"/>
</filter>
<filter id="filter7_d_7_2" x="197.731" y="1094.28" width="401.068" height="395.579" filterUnits="userSpaceOnUse" color-interpolation-filters="sRGB">
<feFlood flood-opacity="0" result="BackgroundImageFix"/>
<feColorMatrix in="SourceAlpha" type="matrix" values="0 0 0 0 0 0 0 0 0 0 0 0 0 0 0 0 0 0 127 0" result="hardAlpha"/>
<feOffset dy="4"/>
<feGaussianBlur stdDeviation="2"/>
<feComposite in2="hardAlpha" operator="out"/>
<feColorMatrix type="matrix" values="0 0 0 0 0 0 0 0 0 0 0 0 0 0 0 0 0 0 0.25 0"/>
<feBlend mode="normal" in2="BackgroundImageFix" result="effect1_dropShadow_7_2"/>
<feBlend mode="normal" in="SourceGraphic" in2="effect1_dropShadow_7_2" result="shape"/>
</filter>
<filter id="filter8_d_7_2" x="247.777" y="1096.84" width="351.022" height="393.014" filterUnits="userSpaceOnUse" color-interpolation-filters="sRGB">
<feFlood flood-opacity="0" result="BackgroundImageFix"/>
<feColorMatrix in="SourceAlpha" type="matrix" values="0 0 0 0 0 0 0 0 0 0 0 0 0 0 0 0 0 0 127 0" result="hardAlpha"/>
<feOffset dy="4"/>
<feGaussianBlur stdDeviation="2"/>
<feComposite in2="hardAlpha" operator="out"/>
<feColorMatrix type="matrix" values="0 0 0 0 0 0 0 0 0 0 0 0 0 0 0 0 0 0 0.25 0"/>
<feBlend mode="normal" in2="BackgroundImageFix" result="effect1_dropShadow_7_2"/>
<feBlend mode="normal" in="SourceGraphic" in2="effect1_dropShadow_7_2" result="shape"/>
</filter>
<filter id="filter9_d_7_2" x="726.771" y="766.202" width="750.527" height="1017.82" filterUnits="userSpaceOnUse" color-interpolation-filters="sRGB">
<feFlood flood-opacity="0" result="BackgroundImageFix"/>
<feColorMatrix in="SourceAlpha" type="matrix" values="0 0 0 0 0 0 0 0 0 0 0 0 0 0 0 0 0 0 127 0" result="hardAlpha"/>
<feOffset dy="4"/>
<feGaussianBlur stdDeviation="2"/>
<feComposite in2="hardAlpha" operator="out"/>
<feColorMatrix type="matrix" values="0 0 0 0 0 0 0 0 0 0 0 0 0 0 0 0 0 0 0.25 0"/>
<feBlend mode="normal" in2="BackgroundImageFix" result="effect1_dropShadow_7_2"/>
<feBlend mode="normal" in="SourceGraphic" in2="effect1_dropShadow_7_2" result="shape"/>
</filter>
<filter id="filter10_d_7_2" x="-379" y="885" width="812.639" height="954.644" filterUnits="userSpaceOnUse" color-interpolation-filters="sRGB">
<feFlood flood-opacity="0" result="BackgroundImageFix"/>
<feColorMatrix in="SourceAlpha" type="matrix" values="0 0 0 0 0 0 0 0 0 0 0 0 0 0 0 0 0 0 127 0" result="hardAlpha"/>
<feOffset dy="4"/>
<feGaussianBlur stdDeviation="2"/>
<feComposite in2="hardAlpha" operator="out"/>
<feColorMatrix type="matrix" values="0 0 0 0 0 0 0 0 0 0 0 0 0 0 0 0 0 0 0.25 0"/>
<feBlend mode="normal" in2="BackgroundImageFix" result="effect1_dropShadow_7_2"/>
<feBlend mode="normal" in="SourceGraphic" in2="effect1_dropShadow_7_2" result="shape"/>
</filter>
<clipPath id="clip0_7_2">
<rect width="1200" height="2859" fill="white"/>
</clipPath>
</defs>
</svg>
