<svg width="1208" height="2867" viewBox="0 0 1208 2867" fill="none" xmlns="http://www.w3.org/2000/svg">
<g clip-path="url(#clip0_7_2)" filter="url(#filter0_f_7_2)">
<rect width="1200" height="2859" transform="translate(4 4)" fill="#002A68" fill-opacity="0.9"/>
<g filter="url(#filter1_d_7_2)">
<path d="M1182.39 1363.87C1105.25 1531.55 843.482 1712.8 661.885 1629.25C480.289 1545.7 447.631 1228.99 524.775 1061.31C601.92 893.635 652.705 1170.95 834.301 1254.5C1015.9 1338.05 1405.49 790.096 1182.39 1363.87Z" fill="#FF7A00"/>
<path d="M1190.17 1346.96C1113.03 1514.64 851.26 1695.9 669.663 1612.35C488.067 1528.8 455.409 1212.08 532.554 1044.41C609.698 876.729 660.483 1154.05 842.079 1237.6C1023.68 1321.15 1413.27 773.19 1190.17 1346.96Z" fill="#FF7A00" fill-opacity="0.59"/>
</g>
<g filter="url(#filter2_d_7_2)">
<path d="M1322 476.978C1322 687.053 1080.91 999 783.5 999C486.095 999 245 687.053 245 476.978C245 266.902 486.095 529.489 783.5 529.489C1080.91 529.489 1266.74 -222.435 1322 476.978Z" fill="#FF7A00"/>
<path d="M1322 455.797C1322 665.872 1080.91 977.819 783.5 977.819C486.095 977.819 245 665.872 245 455.797C245 245.722 486.095 508.308 783.5 508.308C1080.91 508.308 1266.74 -243.616 1322 455.797Z" fill="#FF7A00" fill-opacity="0.59"/>
</g>
<path d="M1273.79 820.411C1252.43 967.607 1111.17 1068.94 958.28 1046.75C805.394 1024.55 516.136 763.558 537.503 616.362C558.871 469.166 840.162 767.514 1035.66 513.703C1188.54 535.897 1295.16 673.215 1273.79 820.411Z" fill="#02644C"/>
<g filter="url(#filter3_d_7_2)">
<path d="M1238.4 200.196C1238.4 298.611 1345.73 853.338 997.326 720.6C876.452 629.684 1172.71 535.54 913.019 318.751C779.28 207.105 977.193 22 1070.13 22C1163.06 22 1238.4 101.781 1238.4 200.196Z" fill="#FFC700"/>
</g>
<g filter="url(#filter4_d_7_2)">
<path d="M431.268 19.849C472.631 118.115 405.974 296.781 282.162 223.959C91.2984 111.702 13.6023 808.236 -27.7609 709.97C-69.1241 611.704 -207.056 158.827 132.373 -131.893C192.139 -173.744 389.905 -78.4168 431.268 19.849Z" fill="#00B4EF"/>
<path d="M562 158.228C562 256.798 417.252 359.056 322.197 235.469C175.665 44.9539 -10.8759 316.951 -10.8759 218.381C-10.8759 119.811 -148.998 -80.3958 322.197 -121.485C401.154 -121.485 562 59.6575 562 158.228Z" fill="#0788B2" fill-opacity="0.98"/>
</g>
<g filter="url(#filter5_d_7_2)">
<path d="M1232 68.2538C1172.29 105.974 1191.53 209.444 1089.69 209.444C997.835 209.444 837.919 106.497 837.919 26.035C837.919 -54.427 950.787 -77.4355 1050.84 -77.4355C1150.89 -77.4355 1232 -12.2082 1232 68.2538Z" fill="#0788B2"/>
<g filter="url(#filter6_d_7_2)">
<path d="M1186.08 4.92556C1150.77 56.8149 1145.61 165.88 1043.77 165.88C951.916 165.88 792 62.9325 792 -17.5295C792 -97.9915 904.868 -121 1004.92 -121C1104.97 -121 1255.79 -97.5068 1186.08 4.92556Z" fill="#00B4EF"/>
</g>
</g>
<g filter="url(#filter7_d_7_2)">
<path d="M-86.9944 1051.91C70.8527 742.849 -326.907 573.494 -207.691 566.099C-88.4749 558.704 234.19 636.977 275.77 1029.4C281.972 1129.39 190.356 1216.44 71.1404 1223.84C-48.0755 1231.23 -80.792 1151.89 -86.9944 1051.91Z" fill="#02644C"/>
</g>
<g filter="url(#filter8_d_7_2)">
<g filter="url(#filter9_d_7_2)">
<path d="M364.293 1444.36C328.1 1390.41 223.849 1337.61 265.402 1248.26C302.878 1167.68 468.517 1072.94 546.982 1108.56C625.446 1144.17 601.831 1253.38 561.009 1341.16C520.186 1428.94 435.742 1550.85 364.293 1444.36Z" fill="#00B4EF"/>
</g>
<path d="M294.763 1433.04C282.343 1363.96 173.591 1335.04 215.144 1245.69C252.62 1165.11 418.26 1070.38 496.724 1105.99C575.188 1141.61 551.574 1250.82 510.751 1338.59C469.928 1426.37 373.227 1468.66 294.763 1433.04Z" fill="#0788B2"/>
</g>
<g filter="url(#filter10_d_7_2)">
<path d="M946.64 1677.15C861.25 1594.99 873.214 1384.36 1046.3 1405.03C1313.13 1436.88 1145.05 694.398 1230.44 776.554C1315.83 858.711 1647.25 1260.1 1355.53 1702.54C1300.68 1770.94 1032.03 1759.3 946.64 1677.15Z" fill="#00B4EF"/>
<path d="M740.953 1592.75C704.206 1492.42 836.705 1325.85 994.823 1410.6C1238.57 1541.24 1357.05 1183.86 1393.8 1284.18C1430.55 1384.51 1667.99 1528.65 1127.9 1773.9C1034.83 1807.99 777.7 1693.07 740.953 1592.75Z" fill="#0788B2" fill-opacity="0.98"/>
</g>
<g filter="url(#filter11_d_7_2)">
<path d="M427 1126.54C427 1294.11 248.362 1542.93 28 1542.93C-192.362 1542.93 -371 1294.11 -371 1126.54C-371 958.971 -192.362 1168.42 28 1168.42C248.362 1168.42 386.054 568.65 427 1126.54Z" fill="#FFC700"/>
<path d="M-32.3876 1333.07C60.4561 1263.83 279.829 1270.28 380.372 1405.09C480.915 1539.89 424.554 1752 331.711 1821.25C238.867 1890.49 273.412 1694.66 172.869 1559.85C72.3262 1425.04 -322.814 1588.67 -32.3876 1333.07Z" fill="#FFC700"/>
</g>
</g>
<defs>
<filter id="filter0_f_7_2" x="0" y="0" width="1208" height="2867" filterUnits="userSpaceOnUse" color-interpolation-filters="sRGB">
<feFlood flood-opacity="0" result="BackgroundImageFix"/>
<feBlend mode="normal" in="SourceGraphic" in2="BackgroundImageFix" result="shape"/>
<feGaussianBlur stdDeviation="2" result="effect1_foregroundBlur_7_2"/>
</filter>
<filter id="filter1_d_7_2" x="481.68" y="991.532" width="779.592" height="666.75" filterUnits="userSpaceOnUse" color-interpolation-filters="sRGB">
<feFlood flood-opacity="0" result="BackgroundImageFix"/>
<feColorMatrix in="SourceAlpha" type="matrix" values="0 0 0 0 0 0 0 0 0 0 0 0 0 0 0 0 0 0 127 0" result="hardAlpha"/>
<feOffset dy="4"/>
<feGaussianBlur stdDeviation="2"/>
<feComposite in2="hardAlpha" operator="out"/>
<feColorMatrix type="matrix" values="0 0 0 0 0 0 0 0 0 0 0 0 0 0 0 0 0 0 0.25 0"/>
<feBlend mode="normal" in2="BackgroundImageFix" result="effect1_dropShadow_7_2"/>
<feBlend mode="normal" in="SourceGraphic" in2="effect1_dropShadow_7_2" result="shape"/>
</filter>
<filter id="filter2_d_7_2" x="241" y="158" width="1085" height="849" filterUnits="userSpaceOnUse" color-interpolation-filters="sRGB">
<feFlood flood-opacity="0" result="BackgroundImageFix"/>
<feColorMatrix in="SourceAlpha" type="matrix" values="0 0 0 0 0 0 0 0 0 0 0 0 0 0 0 0 0 0 127 0" result="hardAlpha"/>
<feOffset dy="4"/>
<feGaussianBlur stdDeviation="2"/>
<feComposite in2="hardAlpha" operator="out"/>
<feColorMatrix type="matrix" values="0 0 0 0 0 0 0 0 0 0 0 0 0 0 0 0 0 0 0.25 0"/>
<feBlend mode="normal" in2="BackgroundImageFix" result="effect1_dropShadow_7_2"/>
<feBlend mode="normal" in="SourceGraphic" in2="effect1_dropShadow_7_2" result="shape"/>
</filter>
<filter id="filter3_d_7_2" x="864" y="22" width="394" height="727" filterUnits="userSpaceOnUse" color-interpolation-filters="sRGB">
<feFlood flood-opacity="0" result="BackgroundImageFix"/>
<feColorMatrix in="SourceAlpha" type="matrix" values="0 0 0 0 0 0 0 0 0 0 0 0 0 0 0 0 0 0 127 0" result="hardAlpha"/>
<feOffset dy="4"/>
<feGaussianBlur stdDeviation="2"/>
<feComposite in2="hardAlpha" operator="out"/>
<feColorMatrix type="matrix" values="0 0 0 0 0 0 0 0 0 0 0 0 0 0 0 0 0 0 0.3 0"/>
<feBlend mode="normal" in2="BackgroundImageFix" result="effect1_dropShadow_7_2"/>
<feBlend mode="normal" in="SourceGraphic" in2="effect1_dropShadow_7_2" result="shape"/>
</filter>
<filter id="filter4_d_7_2" x="-94.6145" y="-142.008" width="660.615" height="869.51" filterUnits="userSpaceOnUse" color-interpolation-filters="sRGB">
<feFlood flood-opacity="0" result="BackgroundImageFix"/>
<feColorMatrix in="SourceAlpha" type="matrix" values="0 0 0 0 0 0 0 0 0 0 0 0 0 0 0 0 0 0 127 0" result="hardAlpha"/>
<feOffset dy="4"/>
<feGaussianBlur stdDeviation="2"/>
<feComposite in2="hardAlpha" operator="out"/>
<feColorMatrix type="matrix" values="0 0 0 0 0 0 0 0 0 0 0 0 0 0 0 0 0 0 0.25 0"/>
<feBlend mode="normal" in2="BackgroundImageFix" result="effect1_dropShadow_7_2"/>
<feBlend mode="normal" in="SourceGraphic" in2="effect1_dropShadow_7_2" result="shape"/>
</filter>
<filter id="filter5_d_7_2" x="788" y="-121" width="448" height="338.444" filterUnits="userSpaceOnUse" color-interpolation-filters="sRGB">
<feFlood flood-opacity="0" result="BackgroundImageFix"/>
<feColorMatrix in="SourceAlpha" type="matrix" values="0 0 0 0 0 0 0 0 0 0 0 0 0 0 0 0 0 0 127 0" result="hardAlpha"/>
<feOffset dy="4"/>
<feGaussianBlur stdDeviation="2"/>
<feComposite in2="hardAlpha" operator="out"/>
<feColorMatrix type="matrix" values="0 0 0 0 0 0 0 0 0 0 0 0 0 0 0 0 0 0 0.25 0"/>
<feBlend mode="normal" in2="BackgroundImageFix" result="effect1_dropShadow_7_2"/>
<feBlend mode="normal" in="SourceGraphic" in2="effect1_dropShadow_7_2" result="shape"/>
</filter>
<filter id="filter6_d_7_2" x="788" y="-121" width="419.874" height="294.88" filterUnits="userSpaceOnUse" color-interpolation-filters="sRGB">
<feFlood flood-opacity="0" result="BackgroundImageFix"/>
<feColorMatrix in="SourceAlpha" type="matrix" values="0 0 0 0 0 0 0 0 0 0 0 0 0 0 0 0 0 0 127 0" result="hardAlpha"/>
<feOffset dy="4"/>
<feGaussianBlur stdDeviation="2"/>
<feComposite in2="hardAlpha" operator="out"/>
<feColorMatrix type="matrix" values="0 0 0 0 0 0 0 0 0 0 0 0 0 0 0 0 0 0 0.25 0"/>
<feBlend mode="normal" in2="BackgroundImageFix" result="effect1_dropShadow_7_2"/>
<feBlend mode="normal" in="SourceGraphic" in2="effect1_dropShadow_7_2" result="shape"/>
</filter>
<filter id="filter7_d_7_2" x="-234.348" y="565.637" width="514.415" height="666.679" filterUnits="userSpaceOnUse" color-interpolation-filters="sRGB">
<feFlood flood-opacity="0" result="BackgroundImageFix"/>
<feColorMatrix in="SourceAlpha" type="matrix" values="0 0 0 0 0 0 0 0 0 0 0 0 0 0 0 0 0 0 127 0" result="hardAlpha"/>
<feOffset dy="4"/>
<feGaussianBlur stdDeviation="2"/>
<feComposite in2="hardAlpha" operator="out"/>
<feColorMatrix type="matrix" values="0 0 0 0 0 0 0 0 0 0 0 0 0 0 0 0 0 0 0.35 0"/>
<feBlend mode="normal" in2="BackgroundImageFix" result="effect1_dropShadow_7_2"/>
<feBlend mode="normal" in="SourceGraphic" in2="effect1_dropShadow_7_2" result="shape"/>
</filter>
<filter id="filter8_d_7_2" x="201.731" y="1098.28" width="401.068" height="395.579" filterUnits="userSpaceOnUse" color-interpolation-filters="sRGB">
<feFlood flood-opacity="0" result="BackgroundImageFix"/>
<feColorMatrix in="SourceAlpha" type="matrix" values="0 0 0 0 0 0 0 0 0 0 0 0 0 0 0 0 0 0 127 0" result="hardAlpha"/>
<feOffset dy="4"/>
<feGaussianBlur stdDeviation="2"/>
<feComposite in2="hardAlpha" operator="out"/>
<feColorMatrix type="matrix" values="0 0 0 0 0 0 0 0 0 0 0 0 0 0 0 0 0 0 0.25 0"/>
<feBlend mode="normal" in2="BackgroundImageFix" result="effect1_dropShadow_7_2"/>
<feBlend mode="normal" in="SourceGraphic" in2="effect1_dropShadow_7_2" result="shape"/>
</filter>
<filter id="filter9_d_7_2" x="251.777" y="1100.84" width="351.022" height="393.014" filterUnits="userSpaceOnUse" color-interpolation-filters="sRGB">
<feFlood flood-opacity="0" result="BackgroundImageFix"/>
<feColorMatrix in="SourceAlpha" type="matrix" values="0 0 0 0 0 0 0 0 0 0 0 0 0 0 0 0 0 0 127 0" result="hardAlpha"/>
<feOffset dy="4"/>
<feGaussianBlur stdDeviation="2"/>
<feComposite in2="hardAlpha" operator="out"/>
<feColorMatrix type="matrix" values="0 0 0 0 0 0 0 0 0 0 0 0 0 0 0 0 0 0 0.25 0"/>
<feBlend mode="normal" in2="BackgroundImageFix" result="effect1_dropShadow_7_2"/>
<feBlend mode="normal" in="SourceGraphic" in2="effect1_dropShadow_7_2" result="shape"/>
</filter>
<filter id="filter10_d_7_2" x="730.771" y="770.202" width="750.527" height="1017.82" filterUnits="userSpaceOnUse" color-interpolation-filters="sRGB">
<feFlood flood-opacity="0" result="BackgroundImageFix"/>
<feColorMatrix in="SourceAlpha" type="matrix" values="0 0 0 0 0 0 0 0 0 0 0 0 0 0 0 0 0 0 127 0" result="hardAlpha"/>
<feOffset dy="4"/>
<feGaussianBlur stdDeviation="2"/>
<feComposite in2="hardAlpha" operator="out"/>
<feColorMatrix type="matrix" values="0 0 0 0 0 0 0 0 0 0 0 0 0 0 0 0 0 0 0.25 0"/>
<feBlend mode="normal" in2="BackgroundImageFix" result="effect1_dropShadow_7_2"/>
<feBlend mode="normal" in="SourceGraphic" in2="effect1_dropShadow_7_2" result="shape"/>
</filter>
<filter id="filter11_d_7_2" x="-375" y="889" width="812.639" height="954.644" filterUnits="userSpaceOnUse" color-interpolation-filters="sRGB">
<feFlood flood-opacity="0" result="BackgroundImageFix"/>
<feColorMatrix in="SourceAlpha" type="matrix" values="0 0 0 0 0 0 0 0 0 0 0 0 0 0 0 0 0 0 127 0" result="hardAlpha"/>
<feOffset dy="4"/>
<feGaussianBlur stdDeviation="2"/>
<feComposite in2="hardAlpha" operator="out"/>
<feColorMatrix type="matrix" values="0 0 0 0 0 0 0 0 0 0 0 0 0 0 0 0 0 0 0.25 0"/>
<feBlend mode="normal" in2="BackgroundImageFix" result="effect1_dropShadow_7_2"/>
<feBlend mode="normal" in="SourceGraphic" in2="effect1_dropShadow_7_2" result="shape"/>
</filter>
<clipPath id="clip0_7_2">
<rect width="1200" height="2859" fill="white" transform="translate(4 4)"/>
</clipPath>
</defs>
</svg>
